<svg width="17" height="18" viewBox="0 0 17 18" fill="none" xmlns="http://www.w3.org/2000/svg">
<path d="M9.80452 12.2135C10.0439 11.4585 10.845 10.2155 11.867 10.0406L16.0011 9.34082C16.1576 9.34082 16.2681 9.21192 16.2681 9.09222C16.2681 8.97253 16.1576 8.87124 16.0011 8.84362L11.867 8.14386C11.3755 7.97388 10.9319 7.68877 10.5731 7.31236C10.2143 6.93595 9.95076 6.47915 9.80452 5.98012L8.88378 0.649021C8.8554 0.586395 8.80826 0.534142 8.74887 0.499499C8.68948 0.464856 8.62079 0.449537 8.55231 0.455665C8.48403 0.450865 8.41589 0.466744 8.35676 0.501233C8.29764 0.535723 8.25027 0.587223 8.22084 0.649021L7.3001 5.98012C7.15525 6.47984 6.89221 6.93735 6.53322 7.31396C6.17424 7.69058 5.72986 7.97523 5.23764 8.14386L1.11272 8.84362C0.956192 8.84362 0.845703 8.97253 0.845703 9.09222C0.845703 9.21192 0.956192 9.3132 1.11272 9.34082L5.23764 10.0406C6.26887 10.2155 7.07912 11.4585 7.3001 12.2135L8.22084 17.563C8.24776 17.6274 8.29428 17.6816 8.35379 17.718C8.41331 17.7543 8.48277 17.771 8.55231 17.7656C8.62207 17.7725 8.69218 17.7564 8.752 17.7199C8.81181 17.6833 8.85808 17.6283 8.88378 17.563L9.80452 12.2135Z" fill="#FEE7E9"/>
</svg>
