<svg width="19" height="18" viewBox="0 0 19 18" fill="none" xmlns="http://www.w3.org/2000/svg">
<g clip-path="url(#clip0_249_27)">
<path d="M8.67972 1.10752C8.98362 0.385059 10.0187 0.38506 10.3226 1.10752L12.1162 5.3716C12.2444 5.67617 12.5341 5.88427 12.8667 5.91063L17.5223 6.27969C18.3111 6.34222 18.631 7.31556 18.03 7.8246L14.4829 10.829C14.2295 11.0436 14.1188 11.3804 14.1963 11.7011L15.2799 16.1933C15.4635 16.9544 14.6262 17.556 13.9508 17.1482L9.96487 14.7409C9.68019 14.5689 9.32213 14.5689 9.03743 14.7409L5.05147 17.1482C4.37613 17.556 3.53875 16.9544 3.72235 16.1933L4.80607 11.7011C4.88348 11.3804 4.77283 11.0436 4.51948 10.829L0.972298 7.8246C0.371305 7.31556 0.69116 6.34222 1.47997 6.27969L6.1357 5.91063C6.46825 5.88427 6.75793 5.67617 6.88605 5.3716L8.67972 1.10752Z" fill="#B70155"/>
</g>
<defs>
<clipPath id="clip0_249_27">
<rect width="17.682" height="16.8125" fill="white" transform="translate(0.660156 0.565674)"/>
</clipPath>
</defs>
</svg>
